# xmcd
#
# Track frame offsets:
#	150
#	12824
#	24824
#	40884
#	53596
#	64983
#
# Disc length: 1065 seconds
#
# Revision: 0
# Processed by: cddbd v1.5.2PL0 Copyright (c) Steve Scherf et al.
# Submitted via: EasyCDDAExtractor 16.0.9.1
#
DISCID=3e042706
DTITLE=Various Artist - Bass Power 4 [CD 02)
DYEAR=2011
DGENRE=Dance
TTITLE0=Kindervater feat. Nadja - Everytime You Need Me
TTITLE1=Kindervater feat. Stefan Rio - Get A Life
TTITLE2=Kindervater feat. 2 Vibez - Love Is Hard (Keep On Trying)
TTITLE3=Kindervater - Alone In The Darkness
TTITLE4=Kindervater feat. Mandy Ventrice - Lovephobia
TTITLE5=Kindervater - Turn Back Time
EXTD=
EXTT0=
EXTT1=
EXTT2=
EXTT3=
EXTT4=
EXTT5=
PLAYORDER=
